<svg width="24" height="24" viewBox="0 0 24 24" fill="none" xmlns="http://www.w3.org/2000/svg">
<path fill-rule="evenodd" clip-rule="evenodd" d="M11.828 2.25C10.912 2.25 10.129 2.913 9.978 3.817L9.887 4.366C9.86178 4.50381 9.80072 4.63255 9.70997 4.73927C9.61921 4.846 9.50196 4.92696 9.37 4.974C9.20842 5.03445 9.04899 5.10049 8.892 5.172C8.76539 5.23219 8.62516 5.25797 8.48542 5.24673C8.34568 5.2355 8.21137 5.18765 8.096 5.108L7.643 4.784C7.28179 4.52594 6.84074 4.4044 6.39833 4.44103C5.95592 4.47765 5.54086 4.67005 5.227 4.984L4.984 5.227C4.67005 5.54086 4.47765 5.95592 4.44103 6.39833C4.4044 6.84074 4.52594 7.28179 4.784 7.643L5.108 8.096C5.18765 8.21137 5.2355 8.34568 5.24673 8.48542C5.25797 8.62516 5.23219 8.76539 5.172 8.892C5.10048 9.04899 5.03444 9.20842 4.974 9.37C4.92696 9.50196 4.846 9.61921 4.73927 9.70997C4.63255 9.80072 4.50381 9.86178 4.366 9.887L3.816 9.979C3.37842 10.0521 2.98094 10.278 2.69421 10.6166C2.40748 10.9551 2.25009 11.3844 2.25 11.828V12.172C2.25 13.088 2.913 13.871 3.817 14.022L4.366 14.113C4.647 14.16 4.874 14.363 4.974 14.63C5.034 14.792 5.101 14.951 5.172 15.108C5.23219 15.2346 5.25797 15.3748 5.24673 15.5146C5.2355 15.6543 5.18765 15.7886 5.108 15.904L4.784 16.357C4.52594 16.7182 4.4044 17.1593 4.44103 17.6017C4.47765 18.0441 4.67005 18.4591 4.984 18.773L5.227 19.016C5.875 19.664 6.897 19.749 7.643 19.216L8.096 18.892C8.21137 18.8124 8.34568 18.7645 8.48542 18.7533C8.62516 18.742 8.76539 18.7678 8.892 18.828C9.049 18.899 9.208 18.965 9.37 19.026C9.637 19.126 9.84 19.353 9.887 19.634L9.979 20.184C10.129 21.087 10.911 21.75 11.828 21.75H12.172C13.088 21.75 13.871 21.087 14.022 20.183L14.113 19.634C14.1382 19.4962 14.1993 19.3675 14.29 19.2607C14.3808 19.154 14.498 19.073 14.63 19.026C14.7916 18.9655 14.951 18.8995 15.108 18.828C15.2346 18.7678 15.3748 18.742 15.5146 18.7533C15.6543 18.7645 15.7886 18.8124 15.904 18.892L16.357 19.216C16.7182 19.4741 17.1593 19.5956 17.6017 19.559C18.0441 19.5224 18.4591 19.3299 18.773 19.016L19.016 18.773C19.664 18.125 19.749 17.103 19.216 16.357L18.892 15.904C18.8124 15.7886 18.7645 15.6543 18.7533 15.5146C18.742 15.3748 18.7678 15.2346 18.828 15.108C18.899 14.951 18.965 14.792 19.026 14.63C19.126 14.363 19.353 14.16 19.634 14.113L20.184 14.022C20.6218 13.9489 21.0194 13.7228 21.3061 13.3841C21.5929 13.0453 21.7502 12.6158 21.75 12.172V11.828C21.75 10.912 21.087 10.129 20.183 9.978L19.634 9.887C19.4962 9.86178 19.3675 9.80072 19.2607 9.70997C19.154 9.61921 19.073 9.50196 19.026 9.37C18.9655 9.20844 18.8995 9.04901 18.828 8.892C18.7678 8.76539 18.742 8.62516 18.7533 8.48542C18.7645 8.34568 18.8124 8.21137 18.892 8.096L19.216 7.643C19.4741 7.28179 19.5956 6.84074 19.559 6.39833C19.5224 5.95592 19.3299 5.54086 19.016 5.227L18.773 4.984C18.4591 4.67005 18.0441 4.47765 17.6017 4.44103C17.1593 4.4044 16.7182 4.52594 16.357 4.784L15.904 5.108C15.7886 5.18765 15.6543 5.2355 15.5146 5.24673C15.3748 5.25797 15.2346 5.23219 15.108 5.172C14.951 5.10049 14.7916 5.03445 14.63 4.974C14.498 4.92696 14.3808 4.846 14.29 4.73927C14.1993 4.63255 14.1382 4.50381 14.113 4.366L14.022 3.816C13.9489 3.37825 13.7228 2.98063 13.3841 2.69389C13.0453 2.40714 12.6158 2.24985 12.172 2.25H11.828ZM12 15.75C12.9946 15.75 13.9484 15.3549 14.6517 14.6517C15.3549 13.9484 15.75 12.9946 15.75 12C15.75 11.0054 15.3549 10.0516 14.6517 9.34835C13.9484 8.64509 12.9946 8.25 12 8.25C11.0054 8.25 10.0516 8.64509 9.34835 9.34835C8.64509 10.0516 8.25 11.0054 8.25 12C8.25 12.9946 8.64509 13.9484 9.34835 14.6517C10.0516 15.3549 11.0054 15.75 12 15.75Z" fill="black"/>
</svg>
