<svg width="33" height="33" viewBox="0 0 33 33" fill="none" xmlns="http://www.w3.org/2000/svg">
<g filter="url(#filter0_d_21_2226)">
<g clip-path="url(#clip0_21_2226)">
<rect x="3" y="1" width="27" height="27" rx="6.75" fill="#B42121"/>
<rect x="3" y="1" width="27" height="27" rx="4.5" fill="#0583F4"/>
<mask id="path-3-outside-1_21_2226" maskUnits="userSpaceOnUse" x="4.50024" y="2.49994" width="24" height="24" fill="black">
<rect fill="white" x="4.50024" y="2.49994" width="24" height="24"/>
<path fill-rule="evenodd" clip-rule="evenodd" d="M24.2811 6.71907C22.2005 4.63841 19.4367 3.49994 16.5002 3.49994C13.5638 3.49994 10.8 4.64626 8.71937 6.71907C6.64657 8.79972 5.50024 11.5635 5.50024 14.4999C5.50024 17.4364 6.64657 20.2002 8.71937 22.2808C10.8 24.3615 13.5638 25.4999 16.5002 25.4999C19.4367 25.4999 22.2005 24.3536 24.2811 22.2808C26.3618 20.2002 27.5002 17.4364 27.5002 14.4999C27.5002 11.5635 26.3618 8.79972 24.2811 6.71907ZM8.96277 7.08024L15.8721 13.9896L12.7001 11.9011L12.653 11.9717C12.3311 12.4585 12.1112 13.0003 11.9935 13.5656L8.57019 12.9218L8.55449 13.0003C8.46812 13.4714 8.42101 13.9503 8.41316 14.4214H5.91638C5.93993 11.5635 7.09411 8.97246 8.96277 7.08024ZM12.7472 20.2473C12.3703 20.0039 12.0249 19.7212 11.7108 19.415L16.3746 14.7512L14.9456 22.3044C13.972 22.1081 13.0534 21.7391 12.2133 21.2051L12.81 20.2865L12.7472 20.2473ZM11.593 19.2972C11.3339 19.0303 11.0984 18.7476 10.8785 18.4414L15.8172 15.0731L11.593 19.2972ZM13.8386 10.3543C14.3411 10.0324 14.8828 9.81257 15.4638 9.68695L16.3354 14.1152L13.8386 10.3543ZM10.6508 18.3943L8.86855 19.6113C8.22473 18.6455 7.77719 17.5934 7.52594 16.4628L8.75863 16.2037L8.74293 16.1252C8.63301 15.6149 8.57805 15.1045 8.57805 14.5863H16.2333L10.6508 18.3943ZM8.57805 14.4214C8.5859 13.9896 8.62515 13.5499 8.70367 13.1181L15.6209 14.4214H8.57805ZM5.91638 14.5863H8.42101C8.42887 15.0888 8.47598 15.5834 8.57805 16.0781L7.3375 16.3372L7.35321 16.4157C7.60446 17.6248 8.0834 18.7476 8.78219 19.7683L8.82929 19.839L10.7451 18.5278C10.9649 18.8418 11.2083 19.1402 11.4753 19.4071L8.96277 21.9196C7.09411 20.0353 5.93993 17.4443 5.91638 14.5863ZM16.4217 25.0917C13.5638 25.0681 10.9728 23.9139 9.08054 22.0453L11.593 19.5328C11.8992 19.8311 12.229 20.0981 12.5823 20.3415L11.9778 21.2601L12.0484 21.3072C12.9435 21.8961 13.9328 22.2887 14.9849 22.4928L15.0634 22.5085L16.406 15.395V25.0917H16.4217ZM16.4217 13.652L14.9613 6.23227C15.4481 6.13805 15.9349 6.09095 16.4217 6.09095V13.652ZM16.4217 5.92606C15.8957 5.93391 15.3696 5.98888 14.8436 6.09095L14.7651 6.10665L15.4403 9.52992C14.8122 9.66339 14.2233 9.91464 13.6815 10.268L13.6109 10.3151L15.9742 13.864L9.08054 6.96247C10.9728 5.0938 13.5638 3.93962 16.4217 3.91607V5.92606ZM27.092 14.4214H22.9542C22.9464 14.0524 22.9149 13.6912 22.8443 13.3222L24.3675 13.016L24.3518 12.9375C24.1476 11.9246 23.7629 10.9825 23.2055 10.1266L24.2419 9.42785L24.1947 9.35718C23.8728 8.87824 23.5038 8.4307 23.1034 8.02242L24.0456 7.08024C25.9064 8.97246 27.0684 11.5635 27.092 14.4214ZM16.5866 3.91607C19.4446 3.93962 22.0356 5.0938 23.9278 6.96247L22.9856 7.90465C22.5773 7.50422 22.1219 7.1352 21.6351 6.81329L21.5645 6.76618L20.5516 8.28937C19.7822 7.78688 18.9342 7.43356 18.047 7.24512L18.2747 6.10665L18.1962 6.09095C17.6623 5.98102 17.1284 5.92606 16.5945 5.92606V3.91607H16.5866ZM16.775 14.5863H22.7815C22.7736 14.9475 22.7422 15.3008 22.6794 15.6541L21.8314 15.4814L21.8157 15.5599C21.6823 16.2351 21.4232 16.8632 21.0463 17.4443L16.885 14.657H16.8928L16.775 14.5863ZM18.3296 17.4443C17.992 17.6563 17.623 17.8054 17.2304 17.8918L16.6573 14.9004L18.3296 17.4443ZM17.3482 14.4214L22.6794 13.3693C22.7422 13.7226 22.7736 14.0681 22.7815 14.4214H17.3482ZM16.5866 6.09095C17.0813 6.0988 17.5838 6.14591 18.0784 6.24012L17.8507 7.3786L17.9292 7.3943C18.8321 7.57488 19.6801 7.92035 20.4574 8.4307L16.5866 14.233V6.09095ZM16.5866 25.0917V15.3793L17.1048 18.0802L17.1833 18.0645C17.6544 17.9782 18.0941 17.7976 18.4945 17.5306L18.5652 17.4835L17.0184 15.1202L23.9278 22.0296C22.0356 23.9061 19.4446 25.0681 16.5866 25.0917ZM24.0456 21.9275L17.1598 15.0417L21.0934 17.6798L21.1405 17.6091C21.5331 17.0203 21.8157 16.3686 21.9571 15.6777L22.805 15.8504L22.8207 15.7719C22.8992 15.3793 22.9385 14.9867 22.9464 14.5863H27.092C27.0684 17.4443 25.9064 20.0353 24.0456 21.9275Z"/>
</mask>
<path fill-rule="evenodd" clip-rule="evenodd" d="M24.2811 6.71907C22.2005 4.63841 19.4367 3.49994 16.5002 3.49994C13.5638 3.49994 10.8 4.64626 8.71937 6.71907C6.64657 8.79972 5.50024 11.5635 5.50024 14.4999C5.50024 17.4364 6.64657 20.2002 8.71937 22.2808C10.8 24.3615 13.5638 25.4999 16.5002 25.4999C19.4367 25.4999 22.2005 24.3536 24.2811 22.2808C26.3618 20.2002 27.5002 17.4364 27.5002 14.4999C27.5002 11.5635 26.3618 8.79972 24.2811 6.71907ZM8.96277 7.08024L15.8721 13.9896L12.7001 11.9011L12.653 11.9717C12.3311 12.4585 12.1112 13.0003 11.9935 13.5656L8.57019 12.9218L8.55449 13.0003C8.46812 13.4714 8.42101 13.9503 8.41316 14.4214H5.91638C5.93993 11.5635 7.09411 8.97246 8.96277 7.08024ZM12.7472 20.2473C12.3703 20.0039 12.0249 19.7212 11.7108 19.415L16.3746 14.7512L14.9456 22.3044C13.972 22.1081 13.0534 21.7391 12.2133 21.2051L12.81 20.2865L12.7472 20.2473ZM11.593 19.2972C11.3339 19.0303 11.0984 18.7476 10.8785 18.4414L15.8172 15.0731L11.593 19.2972ZM13.8386 10.3543C14.3411 10.0324 14.8828 9.81257 15.4638 9.68695L16.3354 14.1152L13.8386 10.3543ZM10.6508 18.3943L8.86855 19.6113C8.22473 18.6455 7.77719 17.5934 7.52594 16.4628L8.75863 16.2037L8.74293 16.1252C8.63301 15.6149 8.57805 15.1045 8.57805 14.5863H16.2333L10.6508 18.3943ZM8.57805 14.4214C8.5859 13.9896 8.62515 13.5499 8.70367 13.1181L15.6209 14.4214H8.57805ZM5.91638 14.5863H8.42101C8.42887 15.0888 8.47598 15.5834 8.57805 16.0781L7.3375 16.3372L7.35321 16.4157C7.60446 17.6248 8.0834 18.7476 8.78219 19.7683L8.82929 19.839L10.7451 18.5278C10.9649 18.8418 11.2083 19.1402 11.4753 19.4071L8.96277 21.9196C7.09411 20.0353 5.93993 17.4443 5.91638 14.5863ZM16.4217 25.0917C13.5638 25.0681 10.9728 23.9139 9.08054 22.0453L11.593 19.5328C11.8992 19.8311 12.229 20.0981 12.5823 20.3415L11.9778 21.2601L12.0484 21.3072C12.9435 21.8961 13.9328 22.2887 14.9849 22.4928L15.0634 22.5085L16.406 15.395V25.0917H16.4217ZM16.4217 13.652L14.9613 6.23227C15.4481 6.13805 15.9349 6.09095 16.4217 6.09095V13.652ZM16.4217 5.92606C15.8957 5.93391 15.3696 5.98888 14.8436 6.09095L14.7651 6.10665L15.4403 9.52992C14.8122 9.66339 14.2233 9.91464 13.6815 10.268L13.6109 10.3151L15.9742 13.864L9.08054 6.96247C10.9728 5.0938 13.5638 3.93962 16.4217 3.91607V5.92606ZM27.092 14.4214H22.9542C22.9464 14.0524 22.9149 13.6912 22.8443 13.3222L24.3675 13.016L24.3518 12.9375C24.1476 11.9246 23.7629 10.9825 23.2055 10.1266L24.2419 9.42785L24.1947 9.35718C23.8728 8.87824 23.5038 8.4307 23.1034 8.02242L24.0456 7.08024C25.9064 8.97246 27.0684 11.5635 27.092 14.4214ZM16.5866 3.91607C19.4446 3.93962 22.0356 5.0938 23.9278 6.96247L22.9856 7.90465C22.5773 7.50422 22.1219 7.1352 21.6351 6.81329L21.5645 6.76618L20.5516 8.28937C19.7822 7.78688 18.9342 7.43356 18.047 7.24512L18.2747 6.10665L18.1962 6.09095C17.6623 5.98102 17.1284 5.92606 16.5945 5.92606V3.91607H16.5866ZM16.775 14.5863H22.7815C22.7736 14.9475 22.7422 15.3008 22.6794 15.6541L21.8314 15.4814L21.8157 15.5599C21.6823 16.2351 21.4232 16.8632 21.0463 17.4443L16.885 14.657H16.8928L16.775 14.5863ZM18.3296 17.4443C17.992 17.6563 17.623 17.8054 17.2304 17.8918L16.6573 14.9004L18.3296 17.4443ZM17.3482 14.4214L22.6794 13.3693C22.7422 13.7226 22.7736 14.0681 22.7815 14.4214H17.3482ZM16.5866 6.09095C17.0813 6.0988 17.5838 6.14591 18.0784 6.24012L17.8507 7.3786L17.9292 7.3943C18.8321 7.57488 19.6801 7.92035 20.4574 8.4307L16.5866 14.233V6.09095ZM16.5866 25.0917V15.3793L17.1048 18.0802L17.1833 18.0645C17.6544 17.9782 18.0941 17.7976 18.4945 17.5306L18.5652 17.4835L17.0184 15.1202L23.9278 22.0296C22.0356 23.9061 19.4446 25.0681 16.5866 25.0917ZM24.0456 21.9275L17.1598 15.0417L21.0934 17.6798L21.1405 17.6091C21.5331 17.0203 21.8157 16.3686 21.9571 15.6777L22.805 15.8504L22.8207 15.7719C22.8992 15.3793 22.9385 14.9867 22.9464 14.5863H27.092C27.0684 17.4443 25.9064 20.0353 24.0456 21.9275Z" fill="white"/>
<path fill-rule="evenodd" clip-rule="evenodd" d="M24.2811 6.71907C22.2005 4.63841 19.4367 3.49994 16.5002 3.49994C13.5638 3.49994 10.8 4.64626 8.71937 6.71907C6.64657 8.79972 5.50024 11.5635 5.50024 14.4999C5.50024 17.4364 6.64657 20.2002 8.71937 22.2808C10.8 24.3615 13.5638 25.4999 16.5002 25.4999C19.4367 25.4999 22.2005 24.3536 24.2811 22.2808C26.3618 20.2002 27.5002 17.4364 27.5002 14.4999C27.5002 11.5635 26.3618 8.79972 24.2811 6.71907ZM8.96277 7.08024L15.8721 13.9896L12.7001 11.9011L12.653 11.9717C12.3311 12.4585 12.1112 13.0003 11.9935 13.5656L8.57019 12.9218L8.55449 13.0003C8.46812 13.4714 8.42101 13.9503 8.41316 14.4214H5.91638C5.93993 11.5635 7.09411 8.97246 8.96277 7.08024ZM12.7472 20.2473C12.3703 20.0039 12.0249 19.7212 11.7108 19.415L16.3746 14.7512L14.9456 22.3044C13.972 22.1081 13.0534 21.7391 12.2133 21.2051L12.81 20.2865L12.7472 20.2473ZM11.593 19.2972C11.3339 19.0303 11.0984 18.7476 10.8785 18.4414L15.8172 15.0731L11.593 19.2972ZM13.8386 10.3543C14.3411 10.0324 14.8828 9.81257 15.4638 9.68695L16.3354 14.1152L13.8386 10.3543ZM10.6508 18.3943L8.86855 19.6113C8.22473 18.6455 7.77719 17.5934 7.52594 16.4628L8.75863 16.2037L8.74293 16.1252C8.63301 15.6149 8.57805 15.1045 8.57805 14.5863H16.2333L10.6508 18.3943ZM8.57805 14.4214C8.5859 13.9896 8.62515 13.5499 8.70367 13.1181L15.6209 14.4214H8.57805ZM5.91638 14.5863H8.42101C8.42887 15.0888 8.47598 15.5834 8.57805 16.0781L7.3375 16.3372L7.35321 16.4157C7.60446 17.6248 8.0834 18.7476 8.78219 19.7683L8.82929 19.839L10.7451 18.5278C10.9649 18.8418 11.2083 19.1402 11.4753 19.4071L8.96277 21.9196C7.09411 20.0353 5.93993 17.4443 5.91638 14.5863ZM16.4217 25.0917C13.5638 25.0681 10.9728 23.9139 9.08054 22.0453L11.593 19.5328C11.8992 19.8311 12.229 20.0981 12.5823 20.3415L11.9778 21.2601L12.0484 21.3072C12.9435 21.8961 13.9328 22.2887 14.9849 22.4928L15.0634 22.5085L16.406 15.395V25.0917H16.4217ZM16.4217 13.652L14.9613 6.23227C15.4481 6.13805 15.9349 6.09095 16.4217 6.09095V13.652ZM16.4217 5.92606C15.8957 5.93391 15.3696 5.98888 14.8436 6.09095L14.7651 6.10665L15.4403 9.52992C14.8122 9.66339 14.2233 9.91464 13.6815 10.268L13.6109 10.3151L15.9742 13.864L9.08054 6.96247C10.9728 5.0938 13.5638 3.93962 16.4217 3.91607V5.92606ZM27.092 14.4214H22.9542C22.9464 14.0524 22.9149 13.6912 22.8443 13.3222L24.3675 13.016L24.3518 12.9375C24.1476 11.9246 23.7629 10.9825 23.2055 10.1266L24.2419 9.42785L24.1947 9.35718C23.8728 8.87824 23.5038 8.4307 23.1034 8.02242L24.0456 7.08024C25.9064 8.97246 27.0684 11.5635 27.092 14.4214ZM16.5866 3.91607C19.4446 3.93962 22.0356 5.0938 23.9278 6.96247L22.9856 7.90465C22.5773 7.50422 22.1219 7.1352 21.6351 6.81329L21.5645 6.76618L20.5516 8.28937C19.7822 7.78688 18.9342 7.43356 18.047 7.24512L18.2747 6.10665L18.1962 6.09095C17.6623 5.98102 17.1284 5.92606 16.5945 5.92606V3.91607H16.5866ZM16.775 14.5863H22.7815C22.7736 14.9475 22.7422 15.3008 22.6794 15.6541L21.8314 15.4814L21.8157 15.5599C21.6823 16.2351 21.4232 16.8632 21.0463 17.4443L16.885 14.657H16.8928L16.775 14.5863ZM18.3296 17.4443C17.992 17.6563 17.623 17.8054 17.2304 17.8918L16.6573 14.9004L18.3296 17.4443ZM17.3482 14.4214L22.6794 13.3693C22.7422 13.7226 22.7736 14.0681 22.7815 14.4214H17.3482ZM16.5866 6.09095C17.0813 6.0988 17.5838 6.14591 18.0784 6.24012L17.8507 7.3786L17.9292 7.3943C18.8321 7.57488 19.6801 7.92035 20.4574 8.4307L16.5866 14.233V6.09095ZM16.5866 25.0917V15.3793L17.1048 18.0802L17.1833 18.0645C17.6544 17.9782 18.0941 17.7976 18.4945 17.5306L18.5652 17.4835L17.0184 15.1202L23.9278 22.0296C22.0356 23.9061 19.4446 25.0681 16.5866 25.0917ZM24.0456 21.9275L17.1598 15.0417L21.0934 17.6798L21.1405 17.6091C21.5331 17.0203 21.8157 16.3686 21.9571 15.6777L22.805 15.8504L22.8207 15.7719C22.8992 15.3793 22.9385 14.9867 22.9464 14.5863H27.092C27.0684 17.4443 25.9064 20.0353 24.0456 21.9275Z" stroke="white" stroke-width="0.128571" mask="url(#path-3-outside-1_21_2226)"/>
</g>
</g>
<defs>
<filter id="filter0_d_21_2226" x="0.798058" y="0.63301" width="31.4039" height="31.4039" filterUnits="userSpaceOnUse" color-interpolation-filters="sRGB">
<feFlood flood-opacity="0" result="BackgroundImageFix"/>
<feColorMatrix in="SourceAlpha" type="matrix" values="0 0 0 0 0 0 0 0 0 0 0 0 0 0 0 0 0 0 127 0" result="hardAlpha"/>
<feOffset dy="1.83495"/>
<feGaussianBlur stdDeviation="1.10097"/>
<feComposite in2="hardAlpha" operator="out"/>
<feColorMatrix type="matrix" values="0 0 0 0 0 0 0 0 0 0 0 0 0 0 0 0 0 0 0.03 0"/>
<feBlend mode="normal" in2="BackgroundImageFix" result="effect1_dropShadow_21_2226"/>
<feBlend mode="normal" in="SourceGraphic" in2="effect1_dropShadow_21_2226" result="shape"/>
</filter>
<clipPath id="clip0_21_2226">
<rect x="3" y="1" width="27" height="27" rx="6.75" fill="white"/>
</clipPath>
</defs>
</svg>
